<svg width="20" height="22" viewBox="0 0 20 22" fill="none" xmlns="http://www.w3.org/2000/svg">
<path d="M2.89552 13.2057V19.2536C2.89552 20.9187 4.06965 22 5.85075 22H17.0448C18.8259 22 20 20.9187 20 19.2536V2.74641C20 1.09091 18.8259 0 17.0448 0H5.85075C4.06965 0 2.89552 1.09091 2.89552 2.74641V8.80383H4.84577V3.05263C4.84577 2.30622 5.30348 1.8756 6.1194 1.8756H16.7761C17.592 1.8756 18.0498 2.30622 18.0498 3.05263V18.9474C18.0498 19.6938 17.592 20.1244 16.7761 20.1244H6.1194C5.30348 20.1244 4.84577 19.6938 4.84577 18.9474V13.2057H2.89552ZM0.835821 11.799H7.38308L9.30348 11.7033L7.33333 13.3684L6.79602 13.9043C6.64677 14.0574 6.54726 14.2679 6.54726 14.4976C6.54726 14.9474 6.88557 15.2632 7.34328 15.2632C7.57214 15.2632 7.78109 15.177 7.9403 15.0239L11.4627 11.6555C11.6716 11.445 11.791 11.2153 11.791 10.9952C11.791 10.7751 11.6716 10.5359 11.4627 10.3349L7.9403 6.96651C7.78109 6.8134 7.57214 6.72727 7.34328 6.72727C6.88557 6.72727 6.54726 7.04306 6.54726 7.49282C6.54726 7.72249 6.64677 7.93301 6.79602 8.08612L7.33333 8.62201L9.30348 10.2871L7.38308 10.1914H0.835821C0.328358 10.1914 0 10.5646 0 10.9952C0 11.4258 0.328358 11.799 0.835821 11.799Z" fill="#F56B6C"/>
</svg>
